<svg width="72" height="60" viewBox="0 0 72 60" fill="none" xmlns="http://www.w3.org/2000/svg">
<path d="M67.9263 28.8261C66.2707 28.3521 64.5173 28.6525 63.1149 29.6506C62.8451 29.8423 62.3107 30.1401 61.7564 29.9813C61.7399 29.9769 61.7234 29.9725 61.707 29.9681L50.2922 27.1469C48.4349 20.566 41.5816 14.322 37.5469 11.1084C31.4325 6.23821 24.0628 2.11064 18.7724 0.593979C10.8666 -1.67415 3.98037 11.0975 1.68258 19.1109C-1.40513 29.8819 -0.115335 39.6614 4.50222 42.9238H1.41726C0.641074 42.9238 0.0121064 43.5533 0.0121064 44.3295C0.0121064 46.9563 1.03493 49.4271 2.89382 51.2877C4.54177 52.934 6.66982 53.9227 8.96157 54.1271L10.6271 57.4587C11.3462 58.8968 12.7914 59.79 14.3987 59.79H57.5876C59.1949 59.79 60.6402 58.8968 61.3592 57.4587L63.0259 54.126C68.0351 53.6744 71.9748 49.4541 71.9748 44.3295C71.9748 43.5533 71.3453 42.9238 70.5691 42.9238H69.3842C69.7556 42.4107 70.0461 41.8268 70.2302 41.1835C70.5048 40.2277 70.5197 39.2252 70.2818 38.2744C70.9871 37.5938 71.5062 36.7363 71.7809 35.7788C72.6362 32.7933 70.9124 29.6819 67.9263 28.8261ZM64.7441 31.9407C65.4462 31.4414 66.3234 31.2914 67.1518 31.5287C68.6437 31.9561 69.5062 33.5118 69.0788 35.0043C68.8876 35.6706 68.4597 36.2402 67.8747 36.6083C67.2682 36.989 67.0452 37.7651 67.3572 38.41C67.6588 39.0335 67.7198 39.7432 67.5286 40.4085C67.1012 41.8988 65.5412 42.7634 64.0514 42.336C63.2236 42.0987 62.5595 41.506 62.2294 40.71C61.6751 39.3779 60.6819 38.4463 59.4333 38.0876C59.4163 38.0826 59.3993 38.0783 59.3823 38.0739L49.2627 35.5723C49.772 34.7725 50.1543 33.9315 50.4042 33.058C50.669 32.1346 50.7887 31.1646 50.7651 30.1593L61.0104 32.6917C62.2519 33.0372 63.5768 32.7713 64.7441 31.9407ZM47.7021 32.2835C47.0847 34.4396 45.3829 36.0678 43.5087 37.2856C42.3381 35.4509 40.449 34.4912 37.9611 34.4912C35.3941 34.4912 33.5056 35.4712 32.3388 37.402C31.1726 35.4712 29.2841 34.4912 26.7171 34.4912C20.8823 34.4912 19.9144 39.5493 19.7359 42.52C17.4331 42.5261 15.209 42.559 13.1682 42.3481C18.1593 38.7759 21.6629 31.3057 23.3817 25.3099C25.0978 19.3279 26.0179 11.2485 23.6728 5.56475C27.6065 7.4923 31.9472 10.2416 35.7957 13.3074C41.0878 17.5223 49.5511 25.8373 47.7021 32.2835ZM41.5948 39.7449C41.8887 40.5656 42.0694 41.6131 42.1414 42.9243H33.7825C34.0423 38.3024 35.6485 37.3021 37.9611 37.3021C39.8952 37.3021 40.9818 38.0327 41.5948 39.7449ZM30.8952 42.9238H22.5363C22.7928 38.2892 24.399 37.3021 26.7166 37.3021C29.0292 37.3021 30.6354 38.3018 30.8952 42.9238ZM4.38522 19.8854C6.47647 12.5911 12.5777 1.7415 17.9973 3.29552C17.9984 3.29607 17.9989 3.29607 17.9995 3.29607C23.7256 4.94127 22.5143 18.1386 20.6796 24.5349C18.5851 31.8413 12.5492 42.6727 7.14993 41.1259C1.40298 39.4774 2.54501 26.3053 4.38522 19.8854ZM62.136 51.3569H51.454C50.6778 51.3569 50.0483 51.9864 50.0483 52.7626C50.0483 53.5388 50.6778 54.1683 51.454 54.1683H59.8618L58.845 56.2013C58.605 56.6809 58.1232 56.9791 57.5876 56.9791H14.3987C13.8631 56.9791 13.3814 56.6809 13.1419 56.2013L12.1251 54.1683H40.21C40.9856 54.1683 41.6152 53.5388 41.6152 52.7626C41.6152 51.9864 40.9856 51.3569 40.21 51.3569H9.85037C7.9739 51.3569 6.20895 50.6257 4.88125 49.2997C3.89193 48.3093 3.23385 47.075 2.96304 45.7335H69.0222C68.3691 48.9371 65.5297 51.3569 62.136 51.3569ZM44.9561 42.9238C44.9012 41.7856 44.7765 40.8018 44.5738 39.9355C45.5757 39.323 46.4623 38.6633 47.2253 37.9645L58.6769 40.7952C59.218 40.9616 59.508 41.4884 59.6333 41.7889C59.8019 42.1959 60.0151 42.5755 60.2656 42.9238H44.9561Z" fill="#0E2C52"/>
<path d="M10.0745 31.7122C13.4561 32.6812 15.6567 26.7563 16.6273 23.3725C18.2461 17.7228 17.6518 13.6023 15.1128 12.8745C14.3625 12.6592 12.8634 12.6257 11.2605 14.8163C10.2212 16.2369 9.29941 18.333 8.52048 21.0478C6.90219 26.6958 7.52621 30.9816 10.0745 31.7122ZM11.2226 21.8223C12.4931 17.3926 13.8516 15.9303 14.3377 15.6408C14.6953 16.2039 15.1156 18.4435 13.9247 22.5979C12.6585 27.0133 11.3703 28.5877 10.8452 28.9305C10.4788 28.3207 10.036 25.963 11.2226 21.8223Z" fill="#0E2C52"/>
<path d="M47.2374 52.7626C47.2374 53.5388 46.6079 54.1683 45.8317 54.1683C45.0555 54.1683 44.4266 53.5388 44.4266 52.7626C44.4266 51.9864 45.0555 51.3569 45.8317 51.3569C46.6079 51.3569 47.2374 51.9864 47.2374 52.7626Z" fill="#0E2C52"/>
</svg>
