<svg width="24" height="24" viewBox="0 0 24 24" fill="none" xmlns="http://www.w3.org/2000/svg">
<g clip-path="url(#clip0)">
<path d="M15.3104 8.69525C15 8.69525 14.7484 8.94686 14.7484 9.25731V19.8803C14.7484 20.1905 15 20.4423 15.3104 20.4423C15.6209 20.4423 15.8725 20.1905 15.8725 19.8803V9.25731C15.8725 8.94686 15.6209 8.69525 15.3104 8.69525Z" fill="#F8F8F8" fill-opacity="0.5"/>
<path d="M8.67809 8.69525C8.36764 8.69525 8.11603 8.94686 8.11603 9.25731V19.8803C8.11603 20.1905 8.36764 20.4423 8.67809 20.4423C8.98854 20.4423 9.24015 20.1905 9.24015 19.8803V9.25731C9.24015 8.94686 8.98854 8.69525 8.67809 8.69525Z" fill="#F8F8F8" fill-opacity="0.5"/>
<path d="M3.84445 7.14497V20.9929C3.84445 21.8114 4.14458 22.5801 4.66887 23.1316C5.19075 23.6847 5.91704 23.9986 6.67714 23.9999H17.3115C18.0718 23.9986 18.7981 23.6847 19.3197 23.1316C19.844 22.5801 20.1442 21.8114 20.1442 20.9929V7.14497C21.1864 6.86833 21.8617 5.86145 21.7223 4.792C21.5827 3.72278 20.6718 2.92294 19.5933 2.92272H16.7156V2.22015C16.7189 1.62933 16.4853 1.062 16.067 0.644624C15.6488 0.227471 15.0806 -0.00481738 14.4898 1.28148e-05H9.49885C8.90803 -0.00481738 8.33982 0.227471 7.92157 0.644624C7.50332 1.062 7.26972 1.62933 7.27301 2.22015V2.92272H4.39531C3.31686 2.92294 2.40593 3.72278 2.26629 4.792C2.12687 5.86145 2.80222 6.86833 3.84445 7.14497ZM17.3115 22.8758H6.67714C5.71615 22.8758 4.96857 22.0503 4.96857 20.9929V7.19437H19.02V20.9929C19.02 22.0503 18.2725 22.8758 17.3115 22.8758ZM8.39713 2.22015C8.39339 1.92748 8.50844 1.64579 8.71614 1.43919C8.92362 1.23259 9.20596 1.11908 9.49885 1.12413H14.4898C14.7826 1.11908 15.065 1.23259 15.2725 1.43919C15.4802 1.64557 15.5952 1.92748 15.5915 2.22015V2.92272H8.39713V2.22015ZM4.39531 4.04684H19.5933C20.1521 4.04684 20.605 4.49978 20.605 5.05854C20.605 5.61731 20.1521 6.07025 19.5933 6.07025H4.39531C3.83654 6.07025 3.3836 5.61731 3.3836 5.05854C3.3836 4.49978 3.83654 4.04684 4.39531 4.04684Z" fill="#F8F8F8" fill-opacity="0.5"/>
<path d="M11.9943 8.69525C11.6839 8.69525 11.4323 8.94686 11.4323 9.25731V19.8803C11.4323 20.1905 11.6839 20.4423 11.9943 20.4423C12.3048 20.4423 12.5564 20.1905 12.5564 19.8803V9.25731C12.5564 8.94686 12.3048 8.69525 11.9943 8.69525Z" fill="#F8F8F8" fill-opacity="0.5"/>
</g>
<defs>
<clipPath id="clip0">
<rect width="24" height="24" fill="white"/>
</clipPath>
</defs>
</svg>
