<svg width="24" height="24" viewBox="0 0 24 24" fill="none" xmlns="http://www.w3.org/2000/svg">
<g clip-path="url(#clip0)">
<path d="M23.7937 4.18345L19.8163 0.205968C19.6845 0.0741092 19.5056 0 19.3191 0C19.1326 0 18.9538 0.0740624 18.822 0.205968L1.82389 17.2039C1.73994 17.2879 1.67858 17.3917 1.64563 17.5058L0.0274118 23.1015C-0.0437912 23.3476 0.0245055 23.6129 0.205677 23.794C0.387317 23.9757 0.65277 24.0432 0.89816 23.9723L6.4939 22.354C6.60799 22.321 6.71177 22.2597 6.79573 22.1757L23.7937 5.1778C24.0683 4.90321 24.0683 4.45804 23.7937 4.18345ZM5.92943 21.0534L1.73258 22.2671L2.94627 18.0703L3.3155 17.7011L6.29862 20.6842L5.92943 21.0534ZM7.29293 19.6899L4.30981 16.7067L16.2422 4.77435L19.2254 7.75747L7.29293 19.6899ZM20.2197 6.76311L17.2366 3.77999L19.3191 1.69748L22.3022 4.6806L20.2197 6.76311Z" fill="#F8F8F8" fill-opacity="0.5"/>
</g>
<defs>
<clipPath id="clip0">
<rect width="24" height="24" fill="white"/>
</clipPath>
</defs>
</svg>
