<svg width="331" height="376" viewBox="0 0 331 376" fill="none" xmlns="http://www.w3.org/2000/svg">
<path d="M79.6993 73.5183L77.1153 72.9656C78.1535 72.07 78.934 70.8601 79.2423 69.419L85.7901 38.8071C85.941 38.1014 85.4912 37.4093 84.7874 37.2588L64.3795 32.8936C63.6757 32.743 62.9821 33.1906 62.8312 33.8962L56.2834 64.5081C55.9751 65.9493 56.1923 67.3726 56.7734 68.6145L46.5047 66.4181C47.5416 65.5222 48.3221 64.3124 48.6304 62.8712L54.0869 37.3613C54.7458 34.2809 53.1015 31.2348 50.3214 30.0214L54.4414 10.7601C54.5923 10.0544 54.1425 9.36226 53.4387 9.21173L43.2348 7.02913C42.531 6.8786 41.8374 7.32617 41.6864 8.0318L37.5665 27.2932C34.5331 27.2644 31.7868 29.3701 31.128 32.4504L25.6715 57.9603C25.3632 59.4015 25.5804 60.8248 26.1615 62.0667L23.5775 61.514C22.8737 61.3635 22.1801 61.811 22.0292 62.5167C21.8782 63.2223 22.3281 63.9145 23.0318 64.065L79.1537 76.0693C79.8574 76.2198 80.5511 75.7723 80.702 75.0666C80.8529 74.361 80.4031 73.6688 79.6993 73.5183ZM43.9646 9.85295L51.6176 11.4899L49.9806 19.1429L42.3277 17.5059L43.9646 9.85295ZM46.0794 62.3255C45.6282 64.435 43.5439 65.7848 41.4344 65.3336L31.2305 63.151C29.121 62.6998 27.7713 60.6154 28.2225 58.506L29.0409 54.6795L46.8979 58.4991L46.0794 62.3255ZM47.4435 55.9481L29.5866 52.1285L32.3148 39.3736L50.1718 43.1931L47.4435 55.9481ZM50.7174 40.6421L32.8605 36.8226L33.6789 32.9961C34.1301 30.8866 36.2145 29.5369 38.3239 29.9881C39.0277 30.1386 39.7213 29.691 39.8722 28.9854L41.782 20.0569L49.435 21.6939L47.5252 30.6223C47.3743 31.328 47.8241 32.0201 48.5279 32.1707C50.6373 32.6219 51.9871 34.7062 51.5359 36.8156L50.7174 40.6421ZM76.6913 68.8733C76.2401 70.9828 74.1558 72.3326 72.0463 71.8813L61.8424 69.6988C59.7329 69.2476 58.3832 67.1632 58.8344 65.0538L62.9267 45.9213L80.7837 49.7409L76.6913 68.8733ZM81.3293 47.1899L63.4724 43.3704L65.1093 35.7174L82.9663 39.5369L81.3293 47.1899Z" fill="#0E2C52" fill-opacity="0.1"/>
<path d="M29.9999 118.422C29.3531 118.422 28.8281 118.947 28.8281 119.594C28.8281 120.241 29.3531 120.766 29.9999 120.766C30.6468 120.766 31.1718 120.241 31.1718 119.594C31.1718 118.947 30.6468 118.422 29.9999 118.422Z" fill="#0E2C52" fill-opacity="0.1"/>
<path d="M58.828 156.273H53.6347C56.1881 154.857 58.317 152.94 59.8029 150.713C60.0428 150.353 60.0652 149.891 59.8613 149.51C59.6573 149.128 59.2602 148.891 58.828 148.891H56.6841C58.8852 144.572 59.9999 140.244 59.9999 136C59.9999 119.822 46.1883 106 29.9999 106C13.8383 106 0 119.793 0 136C0 140.244 1.11469 144.572 3.31581 148.891H1.17187C0.739686 148.891 0.342538 149.128 0.138633 149.51C-0.0651561 149.891 -0.0428905 150.353 0.196875 150.713C1.71234 152.985 3.8762 154.898 6.34803 156.273H1.17187C0.739686 156.273 0.342538 156.511 0.138633 156.892C-0.0651561 157.273 -0.0428905 157.736 0.196875 158.095C3.34933 162.823 9.3035 166 15.0129 166H44.987C50.6439 166 56.6727 162.788 59.803 158.095C60.0429 157.736 60.0653 157.274 59.8614 156.892C59.6573 156.511 59.2602 156.273 58.828 156.273ZM2.34375 136C2.34375 121.009 15.0088 108.344 29.9999 108.344C44.9911 108.344 57.6561 121.009 57.6561 136C57.6561 140.214 56.4359 144.547 54.0295 148.891H48.1683C51.0512 144.966 52.6171 140.468 52.6171 136C52.6171 123.74 42.2597 113.383 29.9999 113.383C17.7402 113.383 7.3828 123.74 7.3828 136C7.3828 140.468 8.94865 144.966 11.8317 148.891H5.97034C3.56402 144.547 2.34375 140.214 2.34375 136ZM45.1777 148.891H14.8222C11.5325 145.057 9.72654 140.498 9.72654 136C9.72654 125.011 19.0107 115.727 29.9999 115.727C40.9892 115.727 50.2733 125.011 50.2733 136C50.2733 140.498 48.4674 145.057 45.1777 148.891ZM3.61066 151.223C6.02964 151.223 53.4376 151.223 56.3947 151.223C53.5875 154.186 49.2257 156.273 44.987 156.273H15.0129C10.9045 156.273 6.50659 154.263 3.61066 151.223ZM44.987 163.656H15.0129C10.9045 163.656 6.50659 161.646 3.61066 158.605C5.36788 158.605 55.0983 158.605 56.3947 158.605C53.5875 161.569 49.2257 163.656 44.987 163.656Z" fill="#0E2C52" fill-opacity="0.1"/>
<path d="M34.9724 119.138C34.3512 118.954 33.7 119.309 33.5166 119.93C33.3335 120.55 33.6879 121.202 34.3087 121.386C40.7415 123.285 45.2343 129.295 45.2343 136C45.2343 136.647 45.7591 137.172 46.4062 137.172C47.0533 137.172 47.578 136.647 47.578 136C47.578 127.957 42.1778 121.266 34.9724 119.138Z" fill="#0E2C52" fill-opacity="0.1"/>
<path d="M151.25 89.749H116.249C114.181 89.749 112.499 91.4315 112.499 93.4991V95.9991C112.499 104.919 117.426 113.01 125.357 117.112C125.969 117.427 126.724 117.19 127.042 116.575C127.357 115.962 127.119 115.207 126.504 114.89C119.409 111.219 114.999 103.982 114.999 95.999V93.499C114.999 92.809 115.559 92.2489 116.249 92.2489H151.25C151.94 92.2489 152.5 92.809 152.5 93.499V95.999C152.5 103.982 148.09 111.219 140.992 114.887C140.377 115.204 140.14 115.959 140.455 116.572C140.677 117.002 141.115 117.249 141.567 117.249C141.762 117.249 141.957 117.204 142.139 117.109C150.072 113.009 155 104.922 155 95.9989V93.4989C155 91.4315 153.317 89.749 151.25 89.749Z" fill="#0E2C52" fill-opacity="0.1"/>
<path d="M162.407 115.52C162.212 115.052 161.757 114.747 161.252 114.747H106.251C105.746 114.747 105.291 115.052 105.096 115.52C104.901 115.987 105.009 116.525 105.366 116.882L108.169 119.687C109.824 121.34 112.019 122.25 114.356 122.25H153.142C155.48 122.25 157.677 121.34 159.335 119.687L162.138 116.882C162.495 116.525 162.602 115.987 162.407 115.52ZM157.565 117.92C156.385 119.1 154.812 119.75 153.145 119.75H114.356C112.689 119.75 111.116 119.1 109.936 117.92L109.266 117.25H158.235L157.565 117.92Z" fill="#0E2C52" fill-opacity="0.1"/>
<path d="M162.583 95.6517C159.215 93.4866 153.835 95.8367 153.232 96.1092C152.605 96.3967 152.325 97.1367 152.612 97.7667C152.9 98.3967 153.637 98.6743 154.27 98.3868C155.475 97.8393 159.34 96.5417 161.23 97.7592C162.082 98.3067 162.5 99.3693 162.5 100.999C162.5 106.004 152.405 109.03 148.507 109.775L147.622 109.949C146.945 110.082 146.504 110.739 146.637 111.417C146.755 112.012 147.277 112.425 147.862 112.425C147.942 112.425 148.022 112.417 148.104 112.4L148.982 112.227C149.637 112.102 165 109.09 165 100.999C165 98.4843 164.185 96.6867 162.583 95.6517Z" fill="#0E2C52" fill-opacity="0.1"/>
<path d="M143.482 79.2788C145.515 76.7387 145.515 72.7611 143.482 70.221C143.049 69.681 142.267 69.591 141.725 70.026C141.185 70.4586 141.097 71.2435 141.53 71.7835C142.817 73.391 142.817 76.1087 141.527 77.7212C139.492 80.2613 139.492 84.2389 141.527 86.779C141.775 87.0889 142.137 87.249 142.505 87.249C142.777 87.249 143.055 87.159 143.285 86.974C143.825 86.5414 143.912 85.7539 143.48 85.2165C142.19 83.6088 142.19 80.8913 143.482 79.2788Z" fill="#0E2C52" fill-opacity="0.1"/>
<path d="M135.972 79.2788C138.007 76.7387 138.007 72.7611 135.972 70.221C135.542 69.681 134.754 69.5935 134.214 70.026C133.674 70.4586 133.587 71.2461 134.019 71.7835C135.309 73.391 135.309 76.1087 134.017 77.7212C131.984 80.2613 131.984 84.2389 134.017 86.779C134.264 87.0889 134.627 87.249 134.994 87.249C135.267 87.249 135.542 87.159 135.774 86.974C136.314 86.5414 136.402 85.7565 135.969 85.2165C134.682 83.6089 134.682 80.8913 135.972 79.2788Z" fill="#0E2C52" fill-opacity="0.1"/>
<path d="M128.482 79.2812C130.514 76.7412 130.514 72.7636 128.482 70.2235C128.052 69.6835 127.267 69.5935 126.724 70.0285C126.187 70.4585 126.099 71.246 126.529 71.7835C127.817 73.391 127.817 76.1087 126.527 77.7212C124.492 80.2613 124.492 84.2389 126.527 86.779C126.774 87.0889 127.137 87.249 127.504 87.249C127.777 87.249 128.054 87.159 128.284 86.9765C128.824 86.544 128.912 85.7565 128.479 85.219C127.189 83.6088 127.189 80.8938 128.482 79.2812Z" fill="#0E2C52" fill-opacity="0.1"/>
<path d="M150.195 187.726C150.122 187.64 150.047 187.558 149.973 187.487C149.236 186.751 148.255 186.347 147.213 186.35C146.176 186.351 145.193 186.759 144.46 187.496L134.745 197.209L123.224 199.13C122.681 199.22 122.164 198.852 122.074 198.308C121.983 197.763 122.352 197.248 122.895 197.157L129.307 196.088C131.211 195.771 132.501 193.964 132.184 192.06C132.182 192.049 132.166 191.959 132.163 191.949C131.785 190.056 129.933 188.84 128.077 189.196L115.245 191.336C114.109 191.535 113.07 192.127 112.318 193.001L108.164 197.82C107.97 198.045 107.886 198.344 107.935 198.637L109.909 210.474C110 211.019 110.515 211.387 111.059 211.296L135.533 207.216C137.134 206.947 138.601 206.122 139.664 204.896L149.974 193.022C151.406 191.593 151.503 189.268 150.195 187.726ZM148.514 191.658L138.153 203.585C137.393 204.462 136.345 205.051 135.203 205.243L111.717 209.158L109.985 198.771L113.834 194.305C114.286 193.781 114.909 193.425 115.583 193.307L128.437 191.163C129.255 191.025 130.04 191.53 130.211 192.389C130.347 193.205 129.794 193.979 128.978 194.115L122.567 195.184C120.935 195.456 119.829 197.005 120.101 198.637C120.373 200.268 121.922 201.374 123.553 201.102L135.39 199.129C135.595 199.095 135.785 198.997 135.934 198.85L145.877 188.908C146.235 188.548 146.71 188.353 147.218 188.349C147.726 188.348 148.203 188.545 148.569 188.909C148.605 188.945 148.638 188.982 148.671 189.02C149.31 189.772 149.261 190.909 148.514 191.658Z" fill="#0E2C52" fill-opacity="0.1"/>
<path d="M108.563 196.505L97.7424 198.309L98.0713 200.282L107.906 198.642L110.372 213.438L100.538 215.077L100.867 217.05L111.688 215.246C112.232 215.155 112.6 214.641 112.51 214.095L109.714 197.327C109.623 196.781 109.108 196.414 108.563 196.505Z" fill="#0E2C52" fill-opacity="0.1"/>
<path d="M104.154 206.364C102.523 206.636 101.417 208.185 101.689 209.817C101.961 211.448 103.51 212.554 105.141 212.282C106.773 212.01 107.879 210.461 107.607 208.83C107.335 207.198 105.786 206.092 104.154 206.364ZM104.812 210.31C104.269 210.4 103.752 210.032 103.661 209.488C103.571 208.943 103.94 208.428 104.483 208.337C105.027 208.246 105.543 208.614 105.634 209.159C105.725 209.703 105.356 210.219 104.812 210.31Z" fill="#0E2C52" fill-opacity="0.1"/>
<path d="M154.295 178.742L97.0843 188.28C96.5398 188.371 96.1714 188.886 96.2624 189.431C96.897 193.238 100.511 195.82 104.318 195.185L149.692 187.62C153.498 186.986 156.08 183.371 155.445 179.564C155.355 179.019 154.84 178.651 154.295 178.742ZM149.363 185.647L103.989 193.212C101.607 193.609 99.3317 192.244 98.4992 190.072L153.538 180.896C153.455 183.221 151.745 185.25 149.363 185.647Z" fill="#0E2C52" fill-opacity="0.1"/>
<path d="M121.414 157.865C107.273 160.223 97.6859 173.646 100.043 187.787L100.208 188.774C100.299 189.319 100.814 189.686 101.359 189.596L150.678 181.373C151.224 181.282 151.591 180.768 151.5 180.222L151.336 179.236C148.978 165.095 135.556 155.508 121.414 157.865ZM102.016 187.458C99.8401 174.405 108.69 162.014 121.743 159.838C134.796 157.662 147.187 166.512 149.363 179.565L102.016 187.458Z" fill="#0E2C52" fill-opacity="0.1"/>
<path d="M107.066 171.822C106.505 172.712 106.005 173.648 105.577 174.606L107.403 175.421C107.793 174.549 108.249 173.696 108.759 172.886L107.066 171.822Z" fill="#0E2C52" fill-opacity="0.1"/>
<path d="M122.072 161.811C116.533 162.738 111.607 165.71 108.204 170.177L109.795 171.389C112.889 167.327 117.367 164.626 122.402 163.784L122.072 161.811Z" fill="#0E2C52" fill-opacity="0.1"/>
<path d="M123.551 152.44L117.632 153.427L117.961 155.4L123.88 154.413L123.551 152.44Z" fill="#0E2C52" fill-opacity="0.1"/>
<path d="M121.743 153.755L119.77 154.084L120.592 159.016L122.565 158.687L121.743 153.755Z" fill="#0E2C52" fill-opacity="0.1"/>
<path d="M36.7611 242.731C36.3062 242.73 35.9093 242.423 35.7949 241.983L31.8197 226.215C31.6847 225.679 31.1411 225.355 30.6056 225.49L24.7876 226.956C24.2521 227.091 23.9274 227.635 24.0624 228.17L28.0376 243.938C28.1455 244.38 27.941 244.839 27.5408 245.056C24.7416 246.586 23.331 249.815 24.1114 252.909L32.423 285.877C32.558 286.413 33.1016 286.738 33.6371 286.603L51.091 282.202C51.6265 282.067 51.9512 281.524 51.8162 280.988L43.5046 248.02C42.7247 244.926 39.9516 242.751 36.7611 242.731ZM26.2462 228.651L30.1248 227.673L30.6137 229.613L26.7351 230.59L26.2462 228.651ZM46.9434 269.841L31.4288 273.753L28.0064 260.177L43.521 256.266L46.9434 269.841ZM34.1179 284.419L31.9177 275.692L47.4323 271.781L49.6324 280.508L34.1179 284.419ZM43.0321 254.327L27.5175 258.238L26.0508 252.42C25.4926 250.21 26.4996 247.903 28.4996 246.809C29.6996 246.156 30.3071 244.775 29.9769 243.449L27.224 232.53L31.1027 231.552L33.8556 242.472C34.192 243.796 35.3823 244.726 36.749 244.733C39.0272 244.747 41.0079 246.3 41.5653 248.509L43.0321 254.327Z" fill="#0E2C52" fill-opacity="0.1"/>
<path d="M58.6444 241.481C56.6166 239.534 55.1776 237.056 54.4913 234.33L51.2129 221.326C51.0779 220.79 50.5343 220.465 49.9988 220.6L44.1808 222.067C43.6453 222.202 43.3206 222.746 43.4556 223.281L46.7341 236.285C47.422 239.01 47.3305 241.873 46.4689 244.548L46.3878 244.795C45.4101 247.828 45.3051 251.075 46.085 254.164L52.7859 280.744C52.9209 281.279 53.4645 281.604 54 281.469L69.5145 277.558C70.05 277.423 70.3747 276.879 70.2397 276.344L63.5389 249.764C62.7601 246.673 61.1278 243.863 58.8279 241.656L58.6444 241.481ZM45.6394 223.762L49.518 222.784L50.0069 224.723L46.1283 225.701L45.6394 223.762ZM68.056 275.863L54.4807 279.285L48.0243 253.675C47.3364 250.951 47.4279 248.088 48.2894 245.413L48.3705 245.166C49.3483 242.133 49.4533 238.886 48.6734 235.797L46.6172 227.641L50.4959 226.663L52.552 234.819C53.3308 237.91 54.9631 240.719 57.263 242.927L57.4465 243.102C59.4743 245.049 60.9133 247.527 61.5996 250.253L68.056 275.863Z" fill="#0E2C52" fill-opacity="0.1"/>
<path d="M55.6458 255.272C52.9684 255.947 51.3448 258.665 52.0198 261.342C52.6948 264.02 55.4129 265.643 58.0904 264.968C60.7678 264.293 62.3914 261.575 61.7164 258.898C61.0383 256.222 58.3232 254.6 55.6458 255.272ZM57.6015 263.029C55.995 263.434 54.3641 262.46 53.9591 260.854C53.5541 259.247 54.5283 257.616 56.1347 257.211C57.7412 256.806 59.3721 257.78 59.7771 259.387C60.1821 260.993 59.2079 262.624 57.6015 263.029Z" fill="#0E2C52" fill-opacity="0.1"/>
<path d="M72.9142 224.729L72.9026 224.727C72.7593 224.672 72.6517 224.551 72.6143 224.402L70.6061 216.436C70.4711 215.901 69.9275 215.576 69.392 215.711L63.574 217.178C63.0385 217.313 62.7138 217.857 62.8488 218.392L64.8565 226.356C64.894 226.504 64.8566 226.662 64.7566 226.778L64.7469 226.788C61.8253 230.008 60.7107 234.477 61.7787 238.691L71.2094 276.099C71.3444 276.635 71.888 276.959 72.4235 276.824L89.8774 272.424C90.4129 272.289 90.7376 271.745 90.6026 271.21L81.1719 233.802C80.1138 229.585 77.0135 226.178 72.9142 224.729ZM65.0326 218.873L68.9112 217.895L69.4001 219.834L65.5215 220.812L65.0326 218.873ZM88.4188 270.729L72.9043 274.641L63.718 238.203C62.8161 234.643 63.7539 230.869 66.2171 228.145L66.2318 228.13C66.7869 227.517 66.9983 226.668 66.7958 225.867L66.0104 222.751L69.8891 221.774L70.6745 224.889C70.876 225.69 71.4648 226.338 72.2438 226.614L72.264 226.62C75.7236 227.851 78.3387 230.73 79.2326 234.291L88.4188 270.729Z" fill="#0E2C52" fill-opacity="0.1"/>
<path d="M67.9906 242.878C67.4551 243.013 67.1304 243.557 67.2654 244.092L73.6213 269.303C73.7563 269.839 74.2999 270.164 74.8354 270.029L84.532 267.584C85.0675 267.449 85.3922 266.905 85.2572 266.37L78.9013 241.159C78.7663 240.623 78.2227 240.298 77.6872 240.433L67.9906 242.878ZM83.0734 265.889L75.3161 267.845L69.4492 244.573L77.2064 242.617L83.0734 265.889Z" fill="#0E2C52" fill-opacity="0.1"/>
<path d="M143.149 272.168C148.883 270.295 153.558 266.051 155.976 260.523C157.089 257.977 157.685 255.278 157.745 252.499L158.019 239.942C158.031 239.401 157.671 238.923 157.149 238.783L140.011 234.214C139.488 234.075 138.939 234.311 138.68 234.785L132.665 245.812C131.334 248.252 130.507 250.89 130.204 253.653C129.549 259.65 131.491 265.658 135.532 270.137L137.744 272.589L133.737 287.621L123.75 289.677C123.218 289.787 122.831 290.248 122.816 290.791C122.8 291.335 123.16 291.817 123.685 291.957L142.56 296.99C143.085 297.13 143.637 296.89 143.894 296.411C144.151 295.932 144.045 295.34 143.638 294.979L136.001 288.225L140.009 273.193L143.149 272.168ZM140.297 236.716L155.655 240.811L155.435 250.957L135.437 245.625L140.297 236.716ZM132.535 253.907C132.77 251.754 133.364 249.687 134.304 247.749L155.36 253.363C155.21 255.512 154.696 257.6 153.828 259.584C151.679 264.5 147.521 268.274 142.421 269.94L139.401 270.927L137.272 268.567C133.678 264.584 131.952 259.24 132.535 253.907ZM129.086 290.972L134.345 289.888L138.367 293.446L129.086 290.972Z" fill="#0E2C52" fill-opacity="0.1"/>
<path d="M143.133 266.865C143.4 266.936 143.693 266.913 143.959 266.78C146.976 265.267 149.426 262.904 151.044 259.944C151.354 259.376 151.146 258.664 150.577 258.354C150.009 258.043 149.297 258.252 148.987 258.82C147.599 261.359 145.497 263.387 142.909 264.685C142.331 264.975 142.097 265.679 142.387 266.258C142.543 266.57 142.82 266.781 143.133 266.865Z" fill="#0E2C52" fill-opacity="0.1"/>
<path d="M151.243 256.306C151.54 256.385 151.864 256.343 152.132 256.188C152.398 256.033 152.597 255.774 152.677 255.475C152.756 255.177 152.713 254.853 152.559 254.586C152.404 254.32 152.144 254.121 151.847 254.041C151.548 253.962 151.224 254.005 150.958 254.159C150.691 254.314 150.492 254.573 150.412 254.872C150.333 255.171 150.376 255.494 150.53 255.762C150.685 256.028 150.945 256.226 151.243 256.306Z" fill="#0E2C52" fill-opacity="0.1"/>
<path d="M119.898 363.459H113.808L112.33 349.416L113.966 351.869L114.371 353.899C114.567 354.877 115.182 355.71 116.06 356.186C116.557 356.455 117.103 356.591 117.652 356.591C118.072 356.591 118.494 356.511 118.897 356.351C119.763 356.004 120.45 355.305 120.782 354.433C121.114 353.56 121.065 352.582 120.648 351.747L119.793 350.037C119.79 350.03 119.784 350.026 119.78 350.02C119.778 350.015 119.778 350.01 119.776 350.005L113.787 339.024C113.676 338.82 113.496 338.661 113.281 338.574L110.576 337.492C112.607 335.843 113.908 333.33 113.908 330.516C113.908 329.012 113.512 327.531 112.783 326.205L112.268 321.052C113.875 320.371 114.907 319.034 114.907 317.539C114.907 315.39 112.773 313.632 110.112 313.549C109.051 311.707 107.083 310.551 104.924 310.551C102.765 310.551 100.797 311.707 99.7359 313.549C97.0745 313.632 94.9412 315.39 94.9412 317.539C94.9412 319.034 95.9724 320.371 97.5796 321.052L97.0645 326.205C96.3358 327.531 95.9394 329.012 95.9394 330.516C95.9394 333.33 97.2412 335.843 99.2727 337.491L96.5674 338.573C96.4076 338.637 96.2669 338.742 96.1591 338.877L92.7899 343.089L88.719 339.832L87.6318 338.02C87.4472 337.712 87.2116 337.45 86.957 337.212V334.509C86.957 333.21 86.1195 332.112 84.9605 331.698V327.522H85.9587C87.6099 327.522 88.9535 326.178 88.9535 324.527V318.537C88.9535 316.886 87.6099 315.542 85.9587 315.542H81.9657C80.3145 315.542 78.9709 316.886 78.9709 318.537V324.527C78.9709 326.178 80.3145 327.522 81.9657 327.522H82.9639V331.698C81.8049 332.112 80.9674 333.21 80.9674 334.509V338.503C80.9674 338.504 80.9674 338.506 80.9674 338.507C80.7178 339.101 80.606 339.748 80.6869 340.411C80.8296 341.566 81.4835 342.573 82.4808 343.171L84.3695 344.305L91.006 350.111C92.1211 351.086 93.7552 351.107 94.8952 350.157L97.6854 347.831L96.0393 363.459H78.5875L79.7585 361.117C81.6272 360.396 82.9619 358.592 82.9619 356.471V354.291C84.1209 353.878 84.9585 352.78 84.9585 351.48C84.9585 349.829 83.6148 348.485 81.9637 348.485H63.9948C62.3437 348.485 61 349.829 61 351.48C61 352.78 61.8375 353.878 62.9965 354.291V356.471C62.9965 358.592 64.3312 360.396 66.2 361.117L67.371 363.459H61.9983C61.4472 363.459 61 363.907 61 364.458V368.451C61 369.002 61.4472 369.449 61.9983 369.449H119.898C120.449 369.449 120.896 369.002 120.896 368.451V364.458C120.896 363.907 120.449 363.459 119.898 363.459ZM82.9619 325.525H81.9637C81.4136 325.525 80.9654 325.077 80.9654 324.527V318.537C80.9654 317.987 81.4136 317.539 81.9637 317.539H82.9619V325.525ZM118.862 352.638C119.032 352.979 119.052 353.365 118.917 353.722C118.781 354.079 118.51 354.354 118.156 354.496C117.784 354.645 117.365 354.621 117.012 354.429C116.659 354.237 116.409 353.901 116.33 353.507L116.073 352.218L118.366 351.645L118.862 352.638ZM112.206 340.294L117.405 349.826L115.347 350.34L111.837 345.075L110.387 339.567L112.206 340.294ZM110.015 346.489L111.802 363.459H98.0468L99.8327 346.489H110.015ZM100.23 344.492L101.701 338.897C101.741 338.912 101.782 338.923 101.822 338.937C102.023 339.011 102.225 339.082 102.431 339.141C102.51 339.164 102.59 339.182 102.669 339.202C102.859 339.252 103.05 339.3 103.245 339.337C103.343 339.356 103.441 339.367 103.539 339.382C103.72 339.41 103.9 339.44 104.083 339.458C104.212 339.47 104.342 339.471 104.471 339.478C104.622 339.486 104.771 339.501 104.924 339.501C105.077 339.501 105.225 339.486 105.377 339.478C105.507 339.471 105.636 339.47 105.764 339.458C105.948 339.441 106.128 339.411 106.308 339.382C106.406 339.367 106.505 339.356 106.603 339.337C106.798 339.3 106.988 339.251 107.179 339.202C107.258 339.181 107.338 339.164 107.417 339.141C107.623 339.082 107.826 339.012 108.025 338.937C108.065 338.922 108.106 338.912 108.146 338.897L109.619 344.492H100.23ZM96.9377 317.539C96.9377 316.457 98.3093 315.542 99.9325 315.542C99.9904 315.542 100.045 315.549 100.101 315.555L100.262 315.57C100.682 315.595 101.086 315.361 101.255 314.968C101.886 313.498 103.327 312.548 104.924 312.548C106.521 312.548 107.962 313.498 108.594 314.968C108.762 315.361 109.172 315.603 109.587 315.57L109.748 315.555C109.802 315.549 109.857 315.542 109.915 315.542C111.538 315.542 112.91 316.457 112.91 317.539C112.91 318.337 112.103 319.099 110.948 319.395C110.47 319.516 110.153 319.97 110.202 320.461L110.809 326.523H99.0391L99.645 320.462C99.6939 319.971 99.3765 319.517 98.8983 319.396C97.7443 319.099 96.9377 318.337 96.9377 317.539ZM97.936 330.516C97.936 329.84 98.0368 329.167 98.2305 328.52H111.616C111.811 329.167 111.912 329.84 111.912 330.516C111.912 333.288 110.286 335.68 107.942 336.81C107.715 336.918 107.483 337.015 107.249 337.098C107.238 337.102 107.227 337.106 107.216 337.11C105.728 337.63 104.117 337.63 102.63 337.11C102.619 337.106 102.608 337.102 102.597 337.098C102.362 337.015 102.132 336.918 101.904 336.81C99.5622 335.68 97.936 333.288 97.936 330.516ZM84.9585 317.539H85.9567C86.5068 317.539 86.955 317.987 86.955 318.537V324.527C86.955 325.077 86.5068 325.525 85.9567 325.525H84.9585V317.539ZM83.9602 333.511C84.5103 333.511 84.9585 333.959 84.9585 334.509V336.244C84.9525 336.243 84.9455 336.243 84.9395 336.242C84.9155 336.239 84.8946 336.229 84.8706 336.226C84.8157 336.219 84.7618 336.229 84.7079 336.224C84.5342 336.21 84.3625 336.208 84.1888 336.218C84.102 336.223 84.0161 336.223 83.9313 336.234C83.7256 336.259 83.525 336.307 83.3263 336.367C83.2414 336.393 83.1596 336.42 83.0767 336.451C83.0388 336.465 82.9999 336.474 82.9629 336.489V334.509H82.9619C82.9619 333.959 83.4102 333.511 83.9602 333.511ZM83.508 341.459C83.0398 341.179 82.7333 340.708 82.6674 340.167C82.6235 339.814 82.6964 339.47 82.8521 339.163C82.8561 339.155 82.8631 339.15 82.8671 339.142C82.91 339.061 82.9529 338.991 82.9969 338.926C83.0508 338.851 83.1037 338.775 83.1696 338.709C83.3093 338.568 83.472 338.462 83.6428 338.379C83.6567 338.372 83.6707 338.363 83.6847 338.356C83.8554 338.279 84.0371 338.231 84.2227 338.212C84.2367 338.211 84.2497 338.209 84.2637 338.208C84.4444 338.193 84.627 338.209 84.8067 338.25C84.8257 338.254 84.8447 338.258 84.8626 338.263C85.0493 338.313 85.231 338.39 85.3977 338.504C85.4027 338.507 85.4087 338.509 85.4137 338.512C85.6143 338.651 85.789 338.83 85.9198 339.048L86.6975 340.344L84.8047 342.237L83.508 341.459ZM93.6155 348.623C93.2361 348.938 92.6901 348.933 92.3187 348.608L86.4179 343.445L88.0262 341.837L92.3197 345.272C92.749 345.616 93.3779 345.547 93.7223 345.116L97.5506 340.33L99.4583 339.568L98.0478 344.929L93.6155 348.623ZM63.9948 352.478C63.4448 352.478 62.9965 352.03 62.9965 351.48C62.9965 350.93 63.4448 350.482 63.9948 350.482H81.9637C82.5137 350.482 82.9619 350.93 82.9619 351.48C82.9619 352.03 82.5137 352.478 81.9637 352.478H63.9948ZM64.9931 356.471V354.475H80.9654V356.471C80.9654 358.123 79.6217 359.466 77.9706 359.466H67.9879C66.3367 359.466 64.9931 358.123 64.9931 356.471ZM77.3537 361.463L76.3554 363.459H73.9775V361.463H77.3537ZM71.981 361.463V363.459H69.6031L68.6048 361.463H71.981ZM118.9 367.452H62.9965V365.456H68.9862H76.9723H96.9377H112.91H118.9V367.452Z" fill="#0E2C52" fill-opacity="0.1"/>
<path d="M107.919 350.482H101.929C101.378 350.482 100.931 350.929 100.931 351.48V354.475C100.931 356.677 102.722 358.468 104.924 358.468C107.126 358.468 108.917 356.677 108.917 354.475V351.48C108.917 350.929 108.47 350.482 107.919 350.482ZM106.92 354.475C106.92 355.576 106.025 356.471 104.924 356.471C103.823 356.471 102.927 355.576 102.927 354.475V352.478H106.92V354.475Z" fill="#0E2C52" fill-opacity="0.1"/>
<path d="M73.9775 340.499H71.981V345.491H73.9775V340.499Z" fill="#0E2C52" fill-opacity="0.1"/>
<path d="M78.9689 342.496H76.9723V346.489H78.9689V342.496Z" fill="#0E2C52" fill-opacity="0.1"/>
<path d="M68.9862 342.496H66.9896V346.489H68.9862V342.496Z" fill="#0E2C52" fill-opacity="0.1"/>
<path d="M73.9775 336.506H71.981V338.503H73.9775V336.506Z" fill="#0E2C52" fill-opacity="0.1"/>
<path d="M68.9862 338.503H66.9896V340.499H68.9862V338.503Z" fill="#0E2C52" fill-opacity="0.1"/>
<path d="M78.9689 338.503H76.9723V340.499H78.9689V338.503Z" fill="#0E2C52" fill-opacity="0.1"/>
<path d="M244.583 261.361L241.995 261.894C242.585 260.657 242.813 259.235 242.515 257.792L236.196 227.132C236.051 226.425 235.36 225.972 234.655 226.118L214.215 230.331C213.511 230.476 213.056 231.165 213.201 231.871L219.521 262.531C219.818 263.975 220.59 265.19 221.621 266.094L211.336 268.213C211.925 266.976 212.153 265.555 211.856 264.111L206.59 238.561C205.954 235.476 203.223 233.349 200.19 233.356L196.213 214.064C196.068 213.358 195.377 212.905 194.673 213.05L184.453 215.157C183.748 215.302 183.293 215.991 183.438 216.698L187.415 235.989C184.626 237.183 182.959 240.215 183.595 243.301L188.861 268.851C189.158 270.294 189.93 271.51 190.961 272.413L188.373 272.946C187.668 273.092 187.213 273.78 187.359 274.487C187.505 275.194 188.195 275.647 188.9 275.501L245.11 263.916C245.814 263.771 246.269 263.082 246.124 262.375C245.978 261.668 245.288 261.216 244.583 261.361ZM186.257 217.448L193.922 215.869L195.502 223.534L187.837 225.113L186.257 217.448ZM209.301 264.638C209.736 266.75 208.371 268.825 206.258 269.26L196.038 271.367C193.925 271.802 191.851 270.437 191.416 268.324L190.626 264.491L208.511 260.805L209.301 264.638ZM207.984 258.25L190.099 261.936L187.466 249.162L205.351 245.475L207.984 258.25ZM204.824 242.92L186.939 246.607L186.15 242.774C185.714 240.661 187.079 238.587 189.192 238.152C189.897 238.006 190.352 237.318 190.206 236.611L188.363 227.668L196.028 226.089L197.871 235.031C198.017 235.738 198.707 236.19 199.412 236.045C201.525 235.61 203.599 236.975 204.035 239.088L204.824 242.92ZM239.96 258.318C240.396 260.431 239.031 262.505 236.918 262.941L226.698 265.047C224.585 265.483 222.511 264.117 222.076 262.005L218.126 242.842L236.011 239.156L239.96 258.318ZM235.484 236.601L217.599 240.287L216.02 232.622L233.904 228.936L235.484 236.601Z" fill="#0E2C52" fill-opacity="0.1"/>
<path d="M301 288.422C300.353 288.422 299.828 288.947 299.828 289.594C299.828 290.241 300.353 290.766 301 290.766C301.647 290.766 302.172 290.241 302.172 289.594C302.172 288.947 301.647 288.422 301 288.422Z" fill="#0E2C52" fill-opacity="0.1"/>
<path d="M329.828 326.273H324.635C327.188 324.857 329.317 322.94 330.803 320.713C331.043 320.353 331.065 319.891 330.861 319.51C330.657 319.128 330.26 318.891 329.828 318.891H327.684C329.885 314.572 331 310.244 331 306C331 289.822 317.188 276 301 276C284.838 276 271 289.793 271 306C271 310.244 272.115 314.572 274.316 318.891H272.172C271.74 318.891 271.343 319.128 271.139 319.51C270.935 319.891 270.957 320.353 271.197 320.713C272.712 322.985 274.876 324.898 277.348 326.273H272.172C271.74 326.273 271.343 326.511 271.139 326.892C270.935 327.273 270.957 327.736 271.197 328.095C274.349 332.823 280.303 336 286.013 336H315.987C321.644 336 327.673 332.788 330.803 328.095C331.043 327.736 331.065 327.274 330.861 326.892C330.657 326.511 330.26 326.273 329.828 326.273ZM273.344 306C273.344 291.009 286.009 278.344 301 278.344C315.991 278.344 328.656 291.009 328.656 306C328.656 310.214 327.436 314.547 325.03 318.891H319.168C322.051 314.966 323.617 310.468 323.617 306C323.617 293.74 313.26 283.383 301 283.383C288.74 283.383 278.383 293.74 278.383 306C278.383 310.468 279.949 314.966 282.832 318.891H276.97C274.564 314.547 273.344 310.214 273.344 306ZM316.178 318.891H285.822C282.533 315.057 280.727 310.498 280.727 306C280.727 295.011 290.011 285.727 301 285.727C311.989 285.727 321.273 295.011 321.273 306C321.273 310.498 319.467 315.057 316.178 318.891ZM274.611 321.223C277.03 321.223 324.438 321.223 327.395 321.223C324.588 324.186 320.226 326.273 315.987 326.273H286.013C281.905 326.273 277.507 324.263 274.611 321.223ZM315.987 333.656H286.013C281.905 333.656 277.507 331.646 274.611 328.605C276.368 328.605 326.098 328.605 327.395 328.605C324.588 331.569 320.226 333.656 315.987 333.656Z" fill="#0E2C52" fill-opacity="0.1"/>
<path d="M305.972 289.138C305.351 288.954 304.7 289.309 304.517 289.93C304.333 290.55 304.688 291.202 305.309 291.386C311.741 293.285 316.234 299.295 316.234 306C316.234 306.647 316.759 307.172 317.406 307.172C318.053 307.172 318.578 306.647 318.578 306C318.578 297.957 313.178 291.266 305.972 289.138Z" fill="#0E2C52" fill-opacity="0.1"/>
<path d="M214.764 332.783L180.855 341.46C178.852 341.972 177.639 344.019 178.152 346.022L178.772 348.444C180.983 357.086 187.762 363.702 196.462 365.711C197.133 365.864 197.806 365.447 197.961 364.773C198.114 364.101 197.697 363.428 197.022 363.273C189.239 361.477 183.172 355.558 181.194 347.824L180.574 345.402C180.403 344.734 180.807 344.053 181.475 343.882L215.383 335.205C216.052 335.034 216.733 335.438 216.904 336.106L217.524 338.528C219.503 346.262 217.025 354.367 211.058 359.679C210.541 360.139 210.498 360.93 210.955 361.445C211.277 361.806 211.762 361.938 212.2 361.826C212.389 361.777 212.567 361.685 212.72 361.548C219.389 355.609 222.158 346.553 219.946 337.908L219.326 335.486C218.814 333.484 216.767 332.271 214.764 332.783Z" fill="#0E2C52" fill-opacity="0.1"/>
<path d="M231.961 354.984C231.657 354.579 231.14 354.396 230.651 354.522L177.366 368.156C176.877 368.281 176.512 368.689 176.439 369.191C176.366 369.692 176.603 370.186 177.038 370.444L180.449 372.466C182.462 373.657 184.814 373.995 187.079 373.415L224.654 363.801C226.918 363.221 228.822 361.795 230.018 359.783L232.038 356.371C232.295 355.936 232.266 355.388 231.961 354.984ZM227.865 358.509C227.014 359.945 225.652 360.964 224.037 361.378L186.459 370.993C184.843 371.406 183.159 371.167 181.723 370.316L180.908 369.833L228.348 357.694L227.865 358.509Z" fill="#0E2C52" fill-opacity="0.1"/>
<path d="M227.206 335.692C223.407 334.43 218.777 338.04 218.261 338.453C217.724 338.888 217.636 339.674 218.071 340.213C218.506 340.752 219.289 340.838 219.831 340.403C220.862 339.574 224.285 337.359 226.418 338.069C227.38 338.389 228.048 339.314 228.452 340.894C229.692 345.742 220.662 351.176 217.071 352.864L216.257 353.253C215.633 353.549 215.37 354.295 215.666 354.918C215.928 355.466 216.536 355.736 217.103 355.591C217.18 355.571 217.256 355.544 217.331 355.507L218.139 355.122C218.742 354.838 232.879 348.112 230.874 340.274C230.25 337.837 229.015 336.298 227.206 335.692Z" fill="#0E2C52" fill-opacity="0.1"/>
<path d="M204.643 324.565C205.982 321.601 204.996 317.747 202.398 315.79C201.845 315.374 201.064 315.481 200.647 316.037C200.231 316.59 200.341 317.372 200.893 317.788C202.539 319.026 203.213 321.659 202.363 323.541C201.021 326.506 202.007 330.36 204.608 332.316C204.925 332.555 205.316 332.62 205.672 332.529C205.936 332.462 206.182 332.306 206.359 332.069C206.775 331.516 206.665 330.732 206.112 330.318C204.464 329.081 203.791 326.448 204.643 324.565Z" fill="#0E2C52" fill-opacity="0.1"/>
<path d="M197.367 326.427C198.709 323.462 197.723 319.608 195.122 317.652C194.572 317.235 193.787 317.346 193.371 317.899C192.955 318.452 193.065 319.236 193.618 319.65C195.266 320.887 195.94 323.52 195.087 325.403C193.748 328.367 194.734 332.221 197.333 334.178C197.649 334.417 198.04 334.482 198.396 334.391C198.66 334.323 198.904 334.168 199.084 333.931C199.499 333.378 199.39 332.596 198.837 332.18C197.191 330.942 196.517 328.309 197.367 326.427Z" fill="#0E2C52" fill-opacity="0.1"/>
<path d="M190.111 328.286C191.451 325.322 190.465 321.468 187.866 319.511C187.316 319.095 186.533 319.202 186.115 319.758C185.701 320.308 185.811 321.092 186.361 321.507C188.007 322.745 188.681 325.377 187.831 327.259C186.489 330.225 187.475 334.078 190.076 336.035C190.393 336.273 190.784 336.339 191.14 336.248C191.404 336.18 191.65 336.024 191.828 335.79C192.244 335.237 192.133 334.453 191.581 334.039C189.932 332.799 189.259 330.169 190.111 328.286Z" fill="#0E2C52" fill-opacity="0.1"/>
<path d="M236.195 39.726C236.122 39.6398 236.047 39.5582 235.973 39.4873C235.236 38.7514 234.255 38.3473 233.213 38.3496C232.176 38.3511 231.193 38.7593 230.46 39.496L220.745 49.2089L209.224 51.1296C208.681 51.2202 208.164 50.8522 208.074 50.3077C207.983 49.7633 208.352 49.2475 208.895 49.1569L215.307 48.088C217.211 47.7706 218.501 45.9638 218.184 44.06C218.182 44.0492 218.166 43.9586 218.163 43.9489C217.785 42.0564 215.933 40.8404 214.077 41.1965L201.245 43.3358C200.109 43.5352 199.07 44.1274 198.318 45.0008L194.164 49.8196C193.97 50.0455 193.886 50.3444 193.935 50.6373L195.909 62.4739C196 63.0194 196.515 63.3866 197.059 63.2959L221.533 59.2157C223.134 58.9467 224.601 58.1223 225.664 56.8958L235.974 45.0216C237.406 43.5935 237.503 41.268 236.195 39.726ZM234.514 43.658L224.153 55.5852C223.393 56.4622 222.345 57.0506 221.203 57.243L197.717 61.1585L195.985 50.7708L199.834 46.305C200.286 45.7806 200.909 45.4252 201.583 45.3068L214.437 43.1628C215.255 43.0254 216.04 43.5302 216.211 44.3888C216.347 45.2046 215.794 45.9791 214.978 46.1151L208.567 47.184C206.935 47.456 205.829 49.005 206.101 50.6365C206.373 52.268 207.922 53.3743 209.553 53.1023L221.39 51.1289C221.595 51.0947 221.785 50.9972 221.934 50.8496L231.877 40.9082C232.235 40.5485 232.71 40.3527 233.218 40.349C233.726 40.3484 234.203 40.5447 234.569 40.9095C234.605 40.945 234.638 40.9819 234.671 41.0201C235.31 41.7725 235.261 42.9089 234.514 43.658Z" fill="#0E2C52" fill-opacity="0.1"/>
<path d="M194.563 48.5049L183.742 50.3089L184.071 52.2817L193.906 50.6421L196.372 65.4379L186.538 67.0775L186.867 69.0502L197.688 67.2462C198.232 67.1554 198.6 66.6409 198.51 66.0954L195.714 49.3268C195.623 48.7813 195.108 48.4141 194.563 48.5049Z" fill="#0E2C52" fill-opacity="0.1"/>
<path d="M190.154 58.3641C188.523 58.6361 187.417 60.1852 187.689 61.8166C187.961 63.4481 189.51 64.5544 191.141 64.2824C192.773 64.0104 193.879 62.4614 193.607 60.8299C193.335 59.1985 191.786 58.0921 190.154 58.3641ZM190.812 62.3096C190.269 62.4002 189.752 62.0322 189.661 61.4877C189.571 60.9433 189.94 60.4275 190.483 60.3369C191.027 60.2463 191.543 60.6144 191.634 61.1588C191.725 61.7033 191.356 62.219 190.812 62.3096Z" fill="#0E2C52" fill-opacity="0.1"/>
<path d="M240.295 30.7424L183.084 40.2805C182.54 40.3712 182.171 40.8858 182.262 41.4313C182.897 45.2377 186.511 47.8196 190.318 47.1848L235.692 39.6202C239.498 38.9856 242.08 35.3708 241.445 31.5644C241.355 31.019 240.84 30.6515 240.295 30.7424ZM235.363 37.6474L189.989 45.2121C187.607 45.6093 185.332 44.2438 184.499 42.0722L239.538 32.8963C239.455 35.2205 237.745 37.2503 235.363 37.6474Z" fill="#0E2C52" fill-opacity="0.1"/>
<path d="M207.414 9.86545C193.273 12.223 183.686 25.6464 186.043 39.7872L186.208 40.7736C186.299 41.3191 186.814 41.6863 187.359 41.5955L236.678 33.3731C237.224 33.2821 237.591 32.7677 237.5 32.2223L237.336 31.2359C234.978 17.0949 221.556 7.50776 207.414 9.86545ZM188.016 39.4582C185.84 26.4053 194.69 14.0143 207.743 11.8382C220.796 9.66199 233.187 18.5118 235.363 31.5647L188.016 39.4582Z" fill="#0E2C52" fill-opacity="0.1"/>
<path d="M193.066 23.8219C192.505 24.7122 192.005 25.6483 191.577 26.6056L193.403 27.4214C193.793 26.5494 194.249 25.6958 194.759 24.886L193.066 23.8219Z" fill="#0E2C52" fill-opacity="0.1"/>
<path d="M208.072 13.811C202.533 14.7375 197.607 17.7099 194.204 22.1774L195.795 23.3893C198.889 19.3271 203.367 16.626 208.402 15.7836L208.072 13.811Z" fill="#0E2C52" fill-opacity="0.1"/>
<path d="M209.551 4.44013L203.632 5.42682L203.961 7.39964L209.88 6.41294L209.551 4.44013Z" fill="#0E2C52" fill-opacity="0.1"/>
<path d="M207.743 5.75536L205.77 6.08427L206.592 11.0162L208.565 10.6873L207.743 5.75536Z" fill="#0E2C52" fill-opacity="0.1"/>
<path d="M188.761 131.731C188.306 131.73 187.909 131.423 187.795 130.983L183.82 115.215C183.685 114.679 183.141 114.355 182.606 114.49L176.788 115.956C176.252 116.091 175.927 116.635 176.062 117.17L180.038 132.938C180.146 133.38 179.941 133.839 179.541 134.056C176.742 135.586 175.331 138.815 176.111 141.909L184.423 174.877C184.558 175.413 185.102 175.738 185.637 175.603L203.091 171.202C203.626 171.067 203.951 170.524 203.816 169.988L195.505 137.02C194.725 133.926 191.952 131.751 188.761 131.731ZM178.246 117.651L182.125 116.673L182.614 118.613L178.735 119.59L178.246 117.651ZM198.943 158.841L183.429 162.753L180.006 149.177L195.521 145.266L198.943 158.841ZM186.118 173.419L183.918 164.692L199.432 160.781L201.632 169.508L186.118 173.419ZM195.032 143.327L179.518 147.238L178.051 141.42C177.493 139.21 178.5 136.903 180.5 135.809C181.7 135.156 182.307 133.775 181.977 132.449L179.224 121.53L183.103 120.552L185.856 131.472C186.192 132.796 187.382 133.726 188.749 133.733C191.027 133.747 193.008 135.3 193.565 137.509L195.032 143.327Z" fill="#0E2C52" fill-opacity="0.1"/>
<path d="M210.644 130.481C208.617 128.534 207.178 126.056 206.491 123.33L203.213 110.326C203.078 109.79 202.534 109.465 201.999 109.6L196.181 111.067C195.645 111.202 195.321 111.746 195.456 112.281L198.734 125.285C199.422 128.01 199.331 130.873 198.469 133.548L198.388 133.795C197.41 136.828 197.305 140.075 198.085 143.164L204.786 169.744C204.921 170.279 205.464 170.604 206 170.469L221.515 166.558C222.05 166.423 222.375 165.879 222.24 165.344L215.539 138.764C214.76 135.673 213.128 132.863 210.828 130.656L210.644 130.481ZM197.639 112.762L201.518 111.784L202.007 113.723L198.128 114.701L197.639 112.762ZM220.056 164.863L206.481 168.285L200.024 142.675C199.336 139.951 199.428 137.088 200.289 134.413L200.371 134.166C201.348 131.133 201.453 127.886 200.673 124.797L198.617 116.641L202.496 115.663L204.552 123.819C205.331 126.91 206.963 129.719 209.263 131.927L209.447 132.102C211.474 134.049 212.913 136.527 213.6 139.253L220.056 164.863Z" fill="#0E2C52" fill-opacity="0.1"/>
<path d="M207.646 144.272C204.968 144.947 203.345 147.665 204.02 150.342C204.695 153.02 207.413 154.643 210.09 153.968C212.768 153.293 214.391 150.575 213.716 147.898C213.038 145.222 210.323 143.6 207.646 144.272ZM209.601 152.029C207.995 152.434 206.364 151.46 205.959 149.854C205.554 148.247 206.528 146.616 208.135 146.211C209.741 145.806 211.372 146.78 211.777 148.387C212.182 149.993 211.208 151.624 209.601 152.029Z" fill="#0E2C52" fill-opacity="0.1"/>
<path d="M224.914 113.729L224.903 113.727C224.759 113.672 224.652 113.551 224.614 113.402L222.606 105.436C222.471 104.901 221.927 104.576 221.392 104.711L215.574 106.178C215.039 106.313 214.714 106.857 214.849 107.392L216.857 115.356C216.894 115.504 216.857 115.662 216.757 115.778L216.747 115.788C213.825 119.008 212.711 123.477 213.779 127.691L223.209 165.099C223.344 165.635 223.888 165.959 224.424 165.824L241.877 161.424C242.413 161.289 242.738 160.745 242.603 160.21L233.172 122.802C232.114 118.585 229.014 115.178 224.914 113.729ZM217.033 107.873L220.911 106.895L221.4 108.834L217.522 109.812L217.033 107.873ZM240.419 159.729L224.904 163.641L215.718 127.203C214.816 123.643 215.754 119.869 218.217 117.145L218.232 117.13C218.787 116.517 218.998 115.668 218.796 114.867L218.01 111.751L221.889 110.774L222.674 113.889C222.876 114.69 223.465 115.338 224.244 115.614L224.264 115.62C227.724 116.851 230.339 119.73 231.233 123.291L240.419 159.729Z" fill="#0E2C52" fill-opacity="0.1"/>
<path d="M219.991 131.878C219.455 132.013 219.13 132.557 219.265 133.092L225.621 158.303C225.756 158.839 226.3 159.164 226.835 159.029L236.532 156.584C237.067 156.449 237.392 155.905 237.257 155.37L230.901 130.159C230.766 129.623 230.223 129.298 229.687 129.433L219.991 131.878ZM235.073 154.889L227.316 156.845L221.449 133.573L229.206 131.617L235.073 154.889Z" fill="#0E2C52" fill-opacity="0.1"/>
<path d="M291.325 88.186C294.244 82.9068 294.772 76.6144 292.774 70.9225C291.853 68.3003 290.449 65.919 288.599 63.8446L280.24 54.4698C279.88 54.066 279.291 53.9612 278.814 54.2153L263.159 62.5533C262.682 62.8074 262.441 63.3545 262.575 63.8783L265.69 76.0464C266.379 78.7388 267.571 81.2333 269.233 83.4609C272.841 88.2956 278.357 91.3683 284.368 91.8915L287.658 92.1779L294.971 105.908L289.065 114.22C288.75 114.663 288.782 115.264 289.141 115.672C289.5 116.08 290.092 116.188 290.571 115.933L307.813 106.75C308.292 106.495 308.534 105.943 308.395 105.417C308.256 104.892 307.775 104.53 307.232 104.544L297.04 104.807L289.726 91.0761L291.325 88.186ZM265.074 64.189L279.103 56.7167L285.857 64.2914L267.59 74.0206L265.074 64.189ZM271.112 82.0585C269.817 80.3231 268.842 78.4054 268.209 76.3469L287.442 66.1027C288.797 67.7772 289.845 69.6557 290.562 71.6988C292.34 76.761 291.87 82.357 289.274 87.0518L287.736 89.8323L284.571 89.5567C279.226 89.0914 274.32 86.3585 271.112 82.0585ZM293.851 111.53L296.962 107.153L302.329 107.015L293.851 111.53Z" fill="#0E2C52" fill-opacity="0.1"/>
<path d="M287.699 84.3164C287.943 84.1864 288.142 83.9699 288.246 83.691C289.422 80.5277 289.603 77.1284 288.77 73.86C288.61 73.233 287.972 72.854 287.345 73.0143C286.718 73.1746 286.339 73.8124 286.499 74.4393C287.214 77.2434 287.059 80.1601 286.049 82.8735C285.823 83.4802 286.132 84.1548 286.739 84.3804C287.066 84.5024 287.413 84.4685 287.699 84.3164Z" fill="#0E2C52" fill-opacity="0.1"/>
<path d="M286.436 71.0623C286.708 70.9175 286.916 70.6656 287.006 70.3706C287.096 70.0751 287.065 69.7503 286.919 69.4771C286.774 69.2048 286.522 68.9971 286.227 68.9072C285.932 68.8176 285.606 68.8489 285.334 68.9937C285.062 69.1387 284.854 69.3915 284.764 69.6862C284.674 69.981 284.706 70.3066 284.851 70.5789C284.996 70.852 285.248 71.0589 285.544 71.1496C285.838 71.2395 286.164 71.2074 286.436 71.0623Z" fill="#0E2C52" fill-opacity="0.1"/>
<g clip-path="url(#clip0)">
<path d="M323.944 208.888L317.855 208.843L316.479 194.789L318.097 197.255L318.488 199.287C318.676 200.267 319.285 201.104 320.159 201.587C320.654 201.86 321.199 202 321.748 202.004C322.168 202.007 322.591 201.93 322.995 201.772C323.864 201.432 324.556 200.738 324.894 199.868C325.232 198.998 325.19 198.02 324.779 197.181L323.937 195.465C323.934 195.458 323.928 195.454 323.924 195.448C323.922 195.443 323.923 195.438 323.921 195.433L318.011 184.408C317.902 184.204 317.723 184.044 317.509 183.955L314.812 182.854C316.855 181.219 318.175 178.715 318.195 175.902C318.206 174.398 317.821 172.914 317.102 171.583L316.624 166.426C318.236 165.757 319.277 164.428 319.288 162.932C319.304 160.783 317.183 159.01 314.523 158.907C313.475 157.058 311.516 155.888 309.357 155.872C307.198 155.856 305.222 156.998 304.147 158.832C301.485 158.895 299.339 160.637 299.323 162.787C299.312 164.282 300.334 165.626 301.936 166.319L301.383 171.468C300.645 172.788 300.238 174.267 300.227 175.771C300.206 178.584 301.49 181.107 303.509 182.77L300.796 183.832C300.636 183.895 300.494 183.999 300.385 184.133L296.986 188.32L292.938 185.034L291.865 183.214C291.682 182.904 291.449 182.641 291.196 182.401L291.215 179.698C291.225 178.399 290.395 177.294 289.239 176.873L289.27 172.696L290.268 172.703C291.919 172.715 293.273 171.382 293.285 169.731L293.329 163.741C293.341 162.09 292.007 160.737 290.356 160.724L286.363 160.695C284.712 160.683 283.358 162.017 283.346 163.668L283.302 169.658C283.29 171.309 284.624 172.662 286.275 172.674L287.274 172.682L287.243 176.858C286.081 177.263 285.235 178.355 285.226 179.655L285.197 183.648C285.197 183.649 285.197 183.651 285.197 183.652C284.943 184.244 284.826 184.891 284.902 185.554C285.037 186.71 285.683 187.721 286.676 188.327L288.556 189.474L295.15 195.329C296.258 196.312 297.892 196.345 299.039 195.404L301.846 193.098L300.086 208.714L282.635 208.586L283.823 206.253C285.697 205.545 287.045 203.751 287.06 201.631L287.076 199.45C288.238 199.046 289.084 197.954 289.093 196.654C289.105 195.003 287.771 193.649 286.12 193.637L268.152 193.506C266.501 193.494 265.147 194.828 265.135 196.479C265.126 197.779 265.955 198.883 267.111 199.305L267.095 201.485C267.08 203.605 268.401 205.419 270.265 206.154L271.419 208.504L266.046 208.465C265.495 208.461 265.044 208.905 265.04 209.456L265.011 213.449C265.007 214 265.451 214.451 266.002 214.455L323.9 214.877C324.451 214.881 324.902 214.437 324.906 213.886L324.935 209.893C324.939 209.342 324.495 208.892 323.944 208.888ZM287.286 170.685L286.288 170.678C285.738 170.674 285.293 170.222 285.297 169.672L285.341 163.683C285.345 163.133 285.796 162.688 286.346 162.692L287.344 162.699L287.286 170.685ZM322.987 198.059C323.155 198.402 323.172 198.788 323.034 199.144C322.896 199.499 322.623 199.773 322.268 199.912C321.894 200.058 321.476 200.031 321.124 199.837C320.772 199.643 320.525 199.304 320.449 198.909L320.201 197.619L322.498 197.063L322.987 198.059ZM316.422 185.668L321.551 195.237L319.489 195.736L316.018 190.445L314.608 184.927L316.422 185.668ZM314.185 191.846L315.848 208.829L302.094 208.728L304.003 191.771L314.185 191.846ZM304.415 189.778L305.927 184.193C305.967 184.209 306.008 184.22 306.048 184.234C306.248 184.309 306.449 184.382 306.655 184.443C306.734 184.467 306.814 184.485 306.893 184.506C307.083 184.557 307.273 184.606 307.468 184.645C307.565 184.665 307.664 184.676 307.762 184.692C307.942 184.721 308.122 184.752 308.305 184.772C308.434 184.785 308.564 184.787 308.692 184.795C308.844 184.804 308.993 184.82 309.145 184.821C309.298 184.822 309.447 184.808 309.599 184.801C309.729 184.795 309.857 184.795 309.986 184.784C310.17 184.768 310.35 184.74 310.531 184.712C310.629 184.698 310.728 184.688 310.826 184.669C311.021 184.634 311.212 184.586 311.403 184.539C311.482 184.518 311.562 184.502 311.641 184.48C311.848 184.421 312.051 184.353 312.251 184.279C312.291 184.265 312.332 184.255 312.372 184.24L313.804 189.846L304.415 189.778ZM301.32 162.801C301.328 161.719 302.706 160.815 304.329 160.827C304.387 160.827 304.442 160.834 304.498 160.841L304.658 160.857C305.078 160.885 305.483 160.653 305.656 160.262C306.298 158.796 307.745 157.857 309.342 157.868C310.939 157.88 312.373 158.841 312.994 160.316C313.16 160.709 313.567 160.955 313.983 160.925L314.144 160.911C314.199 160.906 314.254 160.899 314.312 160.899C315.935 160.911 317.3 161.836 317.292 162.918C317.286 163.715 316.474 164.472 315.317 164.759C314.838 164.877 314.517 165.328 314.562 165.82L315.125 171.887L303.356 171.801L304.006 165.744C304.058 165.253 303.744 164.797 303.267 164.672C302.115 164.367 301.314 163.599 301.32 162.801ZM302.223 175.786C302.228 175.109 302.334 174.437 302.532 173.791L315.918 173.889C316.108 174.537 316.204 175.211 316.199 175.888C316.178 178.659 314.535 181.04 312.183 182.152C311.955 182.259 311.723 182.354 311.488 182.435C311.477 182.439 311.466 182.443 311.455 182.447C309.964 182.956 308.352 182.944 306.869 182.413C306.858 182.409 306.847 182.405 306.836 182.401C306.602 182.316 306.372 182.218 306.145 182.107C303.812 180.961 302.203 178.557 302.223 175.786ZM289.341 162.714L290.339 162.721C290.889 162.725 291.334 163.176 291.33 163.726L291.286 169.716C291.282 170.266 290.831 170.711 290.281 170.707L289.283 170.7L289.341 162.714ZM288.226 178.678C288.776 178.682 289.221 179.134 289.217 179.684L289.204 181.419C289.198 181.418 289.191 181.418 289.185 181.417C289.161 181.413 289.141 181.402 289.117 181.399C289.062 181.392 289.008 181.401 288.954 181.396C288.78 181.381 288.609 181.377 288.435 181.386C288.348 181.391 288.262 181.39 288.177 181.4C287.971 181.425 287.77 181.471 287.571 181.53C287.486 181.555 287.404 181.581 287.321 181.612C287.283 181.625 287.244 181.634 287.207 181.649L287.221 179.669L287.22 179.669C287.225 179.119 287.676 178.674 288.226 178.678ZM287.716 186.623C287.25 186.339 286.947 185.866 286.885 185.324C286.843 184.971 286.919 184.628 287.077 184.322C287.081 184.314 287.088 184.309 287.092 184.301C287.135 184.22 287.179 184.15 287.223 184.086C287.278 184.011 287.331 183.936 287.397 183.87C287.538 183.731 287.702 183.625 287.873 183.543C287.887 183.536 287.901 183.528 287.915 183.521C288.086 183.445 288.268 183.399 288.454 183.381C288.468 183.38 288.481 183.378 288.495 183.377C288.676 183.364 288.859 183.381 289.038 183.423C289.057 183.427 289.076 183.431 289.094 183.436C289.28 183.488 289.461 183.566 289.627 183.681C289.632 183.684 289.638 183.686 289.643 183.689C289.843 183.83 290.016 184.01 290.145 184.229L290.913 185.531L289.007 187.41L287.716 186.623ZM297.771 193.86C297.389 194.173 296.843 194.164 296.474 193.836L290.611 188.63L292.231 187.033L296.499 190.5C296.926 190.847 297.556 190.783 297.903 190.354L301.766 185.596L303.68 184.848L302.23 190.199L297.771 193.86ZM268.123 197.499C267.573 197.495 267.128 197.044 267.132 196.494C267.136 195.944 267.587 195.499 268.137 195.503L286.106 195.634C286.656 195.638 287.101 196.089 287.097 196.639C287.093 197.189 286.641 197.634 286.091 197.63L268.123 197.499ZM269.092 201.499L269.106 199.503L285.078 199.619L285.064 201.616C285.052 203.267 283.698 204.601 282.047 204.589L272.065 204.516C270.414 204.504 269.08 203.15 269.092 201.499ZM281.416 206.581L280.403 208.57L278.025 208.553L278.039 206.556L281.416 206.581ZM276.043 206.542L276.028 208.538L273.651 208.521L272.667 206.517L276.043 206.542ZM322.917 212.874L267.015 212.465L267.03 210.469L273.019 210.513L281.005 210.571L300.97 210.717L316.942 210.833L322.931 210.877L322.917 212.874Z" fill="#0E2C52" fill-opacity="0.1"/>
<path d="M312.06 195.823L306.07 195.78C305.519 195.776 305.069 196.219 305.065 196.771L305.043 199.765C305.027 201.967 306.805 203.771 309.007 203.787C311.209 203.803 313.013 202.026 313.029 199.824L313.051 196.829C313.055 196.278 312.611 195.827 312.06 195.823ZM311.033 199.809C311.024 200.91 310.123 201.799 309.021 201.791C307.92 201.783 307.032 200.881 307.04 199.78L307.054 197.783L311.047 197.812L311.033 199.809Z" fill="#0E2C52" fill-opacity="0.1"/>
<path d="M278.193 185.593L276.196 185.578L276.16 190.57L278.156 190.584L278.193 185.593Z" fill="#0E2C52" fill-opacity="0.1"/>
<path d="M283.169 187.626L281.173 187.611L281.144 191.604L283.14 191.619L283.169 187.626Z" fill="#0E2C52" fill-opacity="0.1"/>
<path d="M273.187 187.553L271.19 187.539L271.161 191.532L273.158 191.546L273.187 187.553Z" fill="#0E2C52" fill-opacity="0.1"/>
<path d="M278.222 181.6L276.225 181.586L276.211 183.582L278.207 183.597L278.222 181.6Z" fill="#0E2C52" fill-opacity="0.1"/>
<path d="M273.216 183.56L271.219 183.546L271.205 185.542L273.201 185.557L273.216 183.56Z" fill="#0E2C52" fill-opacity="0.1"/>
<path d="M283.198 183.633L281.202 183.618L281.187 185.615L283.184 185.63L283.198 183.633Z" fill="#0E2C52" fill-opacity="0.1"/>
</g>
<defs>
<clipPath id="clip0">
<rect width="60" height="60" fill="white" transform="translate(265.438 155) rotate(0.418374)"/>
</clipPath>
</defs>
</svg>
