<svg width="72" height="72" viewBox="0 0 72 72" fill="none" xmlns="http://www.w3.org/2000/svg">
<g clip-path="url(#clip0)">
<path d="M49.5 64.9688C49.5 65.7455 48.8705 66.375 48.0938 66.375C47.317 66.375 46.6875 65.7455 46.6875 64.9688C46.6875 64.192 47.317 63.5625 48.0938 63.5625C48.8705 63.5625 49.5 64.192 49.5 64.9688Z" fill="#0E2C52"/>
<path d="M70.5938 55.125H68.2899C67.5698 45.6993 59.6695 38.25 50.0625 38.25C44.5858 38.25 39.4585 40.6928 35.9973 44.8665C34.1895 42.6956 31.8823 40.9488 29.3049 39.8062C29.3676 37.7419 28.5969 35.5776 27.1956 34.0411C25.3548 32.0229 25.3548 29.094 27.1956 27.0769C28.9748 25.1257 29.6587 22.5516 29.1478 20.1094H31.7812C33.9999 20.1094 36.084 19.0492 37.4035 17.2969H66.9375C68.0641 17.2969 69.1232 16.858 69.9203 16.0609C70.7173 15.2639 71.1562 14.2048 71.1562 13.0781C71.1562 10.7518 69.2639 8.85938 66.9375 8.85938H37.4035C36.0846 7.1076 33.9999 6.04688 31.7812 6.04688H29.1324C29.5269 4.23688 29.2698 2.34888 28.3546 0.717957C28.1052 0.274658 27.6367 0 27.128 0H15.878C15.3787 0 14.9167 0.26477 14.6646 0.695434C14.4124 1.12665 14.4075 1.65894 14.6514 2.09399C15.3248 3.29425 15.4281 4.72412 14.9661 6.04688H9.28125C8.50452 6.04688 7.875 6.67639 7.875 7.45312C7.875 8.22931 8.50452 8.85938 9.28125 8.85938H13.0946C12.4909 9.73938 12.0844 10.687 11.8883 11.6719H9.28125C8.50452 11.6719 7.875 12.3014 7.875 13.0781C7.875 13.8543 8.50452 14.4844 9.28125 14.4844H11.8998C12.1036 15.4693 12.5189 16.4174 13.1314 17.2969H9.28125C8.50452 17.2969 7.875 17.9264 7.875 18.7031C7.875 19.4793 8.50452 20.1094 9.28125 20.1094H14.9865C15.566 21.843 15.1622 23.7618 13.8675 25.1812C11.0511 28.2678 11.0451 32.8414 13.8675 35.9363C14.8271 36.9888 15.2292 38.3774 15.2457 39.5211C8.71271 42.093 4.24457 48.1575 3.71118 55.125H1.40625C0.629516 55.125 0 55.7545 0 56.5312C0 61.6591 3.94135 65.8812 8.95386 66.3327L10.621 69.6671C11.3401 71.1063 12.7864 72 14.3943 72H57.6057C59.2136 72 60.6599 71.1063 61.379 69.6671L63.0456 66.3338C68.0367 65.8894 72 61.7031 72 56.5312C72 55.7545 71.3705 55.125 70.5938 55.125ZM50.0625 41.0625C58.1177 41.0625 64.754 47.2522 65.4664 55.125H62.6402C61.9382 48.8057 56.5659 43.875 50.0625 43.875C45.3796 43.875 41.2822 46.4321 39.0938 50.2229C38.7164 49.2001 38.2462 48.2102 37.6864 47.2632C40.6099 43.3652 45.1725 41.0625 50.0625 41.0625ZM56.952 55.125C56.2989 51.9192 53.4584 49.5 50.0625 49.5C46.6666 49.5 43.8261 51.9192 43.173 55.125H40.3209C41.0054 50.3613 45.1121 46.6875 50.0625 46.6875C55.0129 46.6875 59.1196 50.3613 59.8041 55.125H56.952ZM54.0396 55.125H46.0854C46.6661 53.488 48.2294 52.3125 50.0625 52.3125C51.8956 52.3125 53.4589 53.488 54.0396 55.125ZM68.3438 13.0781C68.3438 13.4533 68.1976 13.8065 67.9318 14.0718C67.6659 14.3383 67.3127 14.4844 66.9375 14.4844H38.6697C38.7636 14.0229 38.8125 13.5522 38.8125 13.0781C38.8125 12.6041 38.7636 12.1333 38.6697 11.6719H66.9375C67.7131 11.6719 68.3438 12.3025 68.3438 13.0781ZM36 13.0781C36 15.4424 34.0719 17.2969 31.7812 17.2969H27.958C27.2455 16.235 26.5391 15.8236 26.0662 14.4844H28.9688C29.7455 14.4844 30.375 13.8549 30.375 13.0781C30.375 12.3014 29.7455 11.6719 28.9688 11.6719H26.0475C26.5029 10.3288 27.2236 9.8811 27.9185 8.85938H31.7812C34.0714 8.85938 36 10.7133 36 13.0781ZM25.1175 7.88489C23.7393 9.39551 23.0098 11.172 23.0032 13.0265C23.0026 13.0435 23.0004 13.0605 23.0004 13.0781C23.0004 13.0979 23.0026 13.1166 23.0032 13.1364C23.0257 14.9672 23.7552 16.7234 25.1158 18.2159C26.9956 20.2841 26.9132 23.2125 25.1175 25.1818C22.3017 28.2684 22.2951 32.842 25.1175 35.9368C25.8102 36.696 26.2771 37.7529 26.4353 38.8109C25.4954 38.5719 24.5385 38.4093 23.5712 38.3236C23.3036 36.7317 22.5791 35.1469 21.5706 34.0411C19.7298 32.0229 19.7298 29.094 21.5706 27.0769C24.3858 23.9903 24.3929 19.4161 21.5706 16.3224C19.7298 14.3042 19.7298 11.7971 21.5706 9.78003C23.3481 7.82941 24.0326 5.22455 23.5179 2.8125H26.2282C26.8374 4.52582 26.4045 6.47369 25.1175 7.88489ZM15.9456 27.0769C18.1791 24.6281 18.6872 21.202 17.2744 18.284C17.2249 18.1274 17.1486 17.9835 17.0513 17.8555C16.7476 17.3106 16.3762 16.7959 15.9456 16.3229C15.0474 15.3375 14.5701 14.2136 14.5646 13.0715C14.5591 11.9147 15.0364 10.7765 15.9456 9.78003C16.3493 9.33728 16.6992 8.85114 16.9958 8.33588C17.1041 8.20239 17.1876 8.04913 17.2408 7.88214C18.0368 6.27045 18.256 4.48901 17.8962 2.81305H20.6021C21.2003 4.5011 20.7955 6.45557 19.4925 7.88489C16.6734 10.9742 16.6734 15.1271 19.4925 18.2181C21.3327 20.2352 21.3327 23.1641 19.4925 25.1818C16.6767 28.2684 16.6701 32.842 19.4925 35.9368C20.0978 36.6004 20.4901 37.47 20.6966 38.295C19.7886 38.3566 18.8904 38.4851 18.006 38.6796C17.8116 36.9772 17.0837 35.2892 15.9456 34.0411C14.1048 32.0229 14.1048 29.0945 15.9456 27.0769ZM21.9375 41.0625C22.0397 41.0625 22.1413 41.0636 22.2517 41.0663C30.1564 41.2207 36.6345 47.3483 37.3398 55.125H34.5152C33.8132 48.8057 28.4409 43.875 21.9375 43.875C15.4341 43.875 10.0618 48.8057 9.3598 55.125H6.53467C7.25922 47.1352 13.9702 41.0625 21.9375 41.0625ZM28.827 55.125C28.1739 51.9192 25.3334 49.5 21.9375 49.5C18.5416 49.5 15.7011 51.9192 15.048 55.125H12.1959C12.8804 50.3613 16.9871 46.6875 21.9375 46.6875C26.8879 46.6875 30.9946 50.3613 31.6791 55.125H28.827ZM25.9146 55.125H17.9604C18.5411 53.488 20.1044 52.3125 21.9375 52.3125C23.7706 52.3125 25.3339 53.488 25.9146 55.125ZM62.1562 63.5625H53.7188C52.942 63.5625 52.3125 64.192 52.3125 64.9688C52.3125 65.7455 52.942 66.375 53.7188 66.375H59.881L58.8636 68.4097C58.6236 68.8892 58.1418 69.1875 57.6057 69.1875H14.3943C13.8582 69.1875 13.3764 68.8892 13.1364 68.4097L12.119 66.375H42.4688C43.2455 66.375 43.875 65.7455 43.875 64.9688C43.875 64.192 43.2455 63.5625 42.4688 63.5625H9.84375C6.44843 63.5625 3.60736 61.1417 2.95367 57.9359H69.0474C68.4069 61.1098 65.595 63.5625 62.1562 63.5625Z" fill="#0E2C52"/>
</g>
<defs>
<clipPath id="clip0">
<rect width="72" height="72" fill="white"/>
</clipPath>
</defs>
</svg>
