<svg width="120" height="120" viewBox="0 0 120 120" fill="none" xmlns="http://www.w3.org/2000/svg">
<g clip-path="url(#clip0)">
<path d="M60 27.4219C41.9073 27.4219 27.1875 42.1417 27.1875 60.2344C27.1875 78.327 41.9073 93.0469 60 93.0469C78.0927 93.0469 92.8125 78.327 92.8125 60.2344C92.8125 42.1417 78.0927 27.4219 60 27.4219ZM60 88.3594C44.4919 88.3594 31.875 75.7425 31.875 60.2344C31.875 44.7263 44.4919 32.1094 60 32.1094C75.5081 32.1094 88.125 44.7263 88.125 60.2344C88.125 75.7425 75.5081 88.3594 60 88.3594Z" fill="#0E2C52"/>
<path d="M117.656 80.5746V2.34375C117.656 1.34125 117.019 0.450439 116.071 0.126343C115.123 -0.197754 114.073 0.117188 113.459 0.909119C106.934 9.33838 102.315 19.1382 99.9426 29.5084C98.6215 27.7972 97.186 26.1566 95.6314 24.603C86.1145 15.0861 73.4601 9.84375 60 9.84375C46.5399 9.84375 33.8864 15.0851 24.3686 24.603C24.0518 24.9197 23.7442 25.242 23.4375 25.5661V2.34375C23.4375 1.04919 22.3883 0 21.0938 0C19.7992 0 18.75 1.04919 18.75 2.34375V30.4688H14.0625V2.34375C14.0625 1.04919 13.0133 0 11.7188 0C10.4242 0 9.375 1.04919 9.375 2.34375V30.4688H4.6875V2.34375C4.6875 1.04919 3.63831 0 2.34375 0C1.04919 0 0 1.04919 0 2.34375V32.8125C0 36.5103 1.76605 39.9866 4.6875 42.1848V80.5746C3.26385 93.6447 2.34375 108.421 2.34375 110.625C2.34375 115.794 6.54968 120 11.7188 120C16.8878 120 21.0938 115.794 21.0938 110.625C21.0938 108.975 20.5783 100.278 19.7214 90.5246C21.1331 92.395 22.6822 94.1803 24.3686 95.8667C33.8864 105.384 46.5399 110.625 60 110.625C73.4601 110.625 86.1145 105.384 95.6314 95.8658C98.4732 93.0249 100.931 89.902 102.985 86.5631C101.914 97.8214 101.25 108.755 101.25 110.625C101.25 115.794 105.456 120 110.625 120C115.794 120 120 115.794 120 110.625C120 108.421 119.08 93.6447 117.656 80.5746V80.5746ZM108.281 64.4531H112.969V69.1406H108.281V64.4531ZM103.612 35.2203C105.019 26.2289 108.219 17.5845 112.969 9.85199V59.7656H106.909L103.595 56.4523L103.612 35.2203ZM9.375 64.4531H14.0625V69.1406H9.375V64.4531ZM18.3444 35.1562C17.7924 36.7099 16.7001 38.0521 15.2325 38.9017C14.5084 39.3201 14.0625 40.0937 14.0625 40.9296V59.7656H9.375V40.9305C9.375 40.0937 8.92914 39.3201 8.20496 38.9017C6.73737 38.0521 5.64606 36.7099 5.09308 35.1562H18.3444ZM11.7188 115.312C9.13422 115.312 7.03125 113.21 7.03125 110.625C7.03125 108.839 9.375 80.787 9.375 80.7019V73.8281H14.0625V80.7019C14.0625 80.787 16.4062 108.839 16.4062 110.625C16.4062 113.21 14.3033 115.312 11.7188 115.312ZM60 105.938C41.8369 105.938 26.1154 95.2872 18.75 79.9045V42.1848C21.6623 39.9939 23.4247 36.5323 23.4366 32.8482C31.7807 21.7346 45.0641 14.5312 60 14.5312C76.4337 14.5312 90.8679 23.2507 98.9236 36.3052L98.9062 57.42C98.9062 58.0426 99.1525 58.6395 99.5929 59.0799L103.594 63.0807V73.9618C97.7518 92.4756 80.4199 105.938 60 105.938V105.938ZM110.625 115.312C108.04 115.312 105.938 113.21 105.938 110.625C105.938 108.839 108.281 80.787 108.281 80.7019V73.8281H112.969V80.7019C112.969 80.787 115.312 108.839 115.312 110.625C115.312 113.21 113.21 115.312 110.625 115.312Z" fill="#0E2C52"/>
<path d="M60.3003 78.9826C59.6741 78.9917 59.0881 79.2444 58.6523 79.6948C58.2166 80.1453 57.9822 80.7349 57.9932 81.3611C58.0032 81.9818 58.2513 82.5613 58.6917 82.9971C59.133 83.4302 59.7162 83.67 60.3351 83.67H60.3726C61.6635 83.6481 62.6999 82.5815 62.6788 81.2888C62.6697 80.6699 62.4207 80.0885 61.9803 79.6545C61.5308 79.2114 60.9238 78.9734 60.3003 78.9826V78.9826Z" fill="#0E2C52"/>
<path d="M78.75 60.2344C78.7528 67.402 74.7583 73.8419 68.3276 77.0389C67.7673 77.3181 67.3471 77.7988 67.1484 78.3911C66.9488 78.9844 66.9919 79.6198 67.2702 80.1801C67.6685 80.9839 68.475 81.4828 69.3704 81.4828C69.7339 81.4828 70.0854 81.4005 70.4114 81.2366C74.2621 79.3268 77.515 76.3925 79.8184 72.7505C82.186 69.0097 83.4375 64.6829 83.4375 60.2344C83.4375 58.9435 82.3856 57.8906 81.0938 57.8906C79.8029 57.8906 78.75 58.9435 78.75 60.2344Z" fill="#0E2C52"/>
</g>
<defs>
<clipPath id="clip0">
<rect width="120" height="120" fill="white"/>
</clipPath>
</defs>
</svg>
