<svg width="72" height="72" viewBox="0 0 72 72" fill="none" xmlns="http://www.w3.org/2000/svg">
<g clip-path="url(#clip0)">
<path d="M48.6551 43.5947C48.6551 44.3714 48.0256 45.0009 47.2494 45.0009C46.4727 45.0009 45.8431 44.3714 45.8431 43.5947C45.8431 42.8179 46.4727 42.1884 47.2494 42.1884C48.0256 42.1884 48.6551 42.8179 48.6551 43.5947Z" fill="#0E2C52"/>
<path d="M6.46881 40.7822C6.46881 42.7356 7.80364 44.3824 9.60869 44.8603C9.60869 44.8603 17.1464 69.1054 17.1497 69.1142C17.7243 70.8402 19.3327 72.0003 21.1525 72.0003H50.8463C52.6661 72.0003 54.2745 70.8402 54.8491 69.1142C54.8524 69.1054 62.3901 44.8609 62.3901 44.8609C64.1528 44.3978 65.53 42.7828 65.53 40.7822C65.53 38.9173 64.3132 37.3325 62.6323 36.7766C62.6884 36.2394 62.7175 35.6983 62.7175 35.1572C62.7175 29.8283 59.9863 24.8757 55.4506 22.0424L62.3764 5.88207C63.2915 3.74359 62.2978 1.25904 60.1604 0.343334C58.0143 -0.576768 55.5352 0.416393 54.6217 2.55872L50.3552 12.515C48.014 6.68847 42.3198 2.81415 35.9994 2.81415C27.54 2.81415 20.5313 9.68773 20.5313 18.2823C20.5313 18.9382 20.5736 19.5924 20.6549 20.2395C13.9384 22.0814 9.2813 28.1848 9.2813 35.1572C9.2813 35.6972 9.31041 36.2377 9.36589 36.775C7.70532 37.3215 6.46881 38.8904 6.46881 40.7822H6.46881ZM40.1533 36.5635C40.1956 36.0966 40.2181 35.6269 40.2181 35.1572C40.2181 34.7414 40.1989 34.3261 40.1659 33.913C41.5398 33.6444 42.8609 32.9671 43.998 31.9311C46.0161 30.0909 48.5227 30.0904 50.5403 31.9317C53.2512 34.4025 56.7789 34.7052 59.6913 32.8397C59.8319 33.5994 59.905 34.3734 59.905 35.1572C59.905 35.6275 59.8781 36.0971 59.8264 36.5635H40.1533ZM12.1723 36.5635C12.1207 36.0971 12.0938 35.6275 12.0938 35.1572C12.0938 34.3657 12.1685 33.5835 12.3119 32.8166C15.2062 34.6914 18.752 34.4354 21.498 31.9311C23.5168 30.0909 26.0233 30.0904 28.0409 31.9317C30.7518 34.4025 34.28 34.7052 37.1925 32.8391C37.1952 32.8545 37.1991 32.8699 37.2018 32.8847C37.337 33.6269 37.4056 34.3915 37.4056 35.1572C37.4056 35.6275 37.3787 36.0971 37.3271 36.5635H12.1723ZM23.4278 19.7457C23.3723 19.2623 23.3437 18.7728 23.3437 18.2829C23.3437 17.4907 23.4184 16.7091 23.5618 15.9422C24.8241 16.7596 26.2029 17.1699 27.5823 17.1694C29.3928 17.1694 31.2033 16.4652 32.748 15.0567C34.7662 13.2165 37.2733 13.216 39.2903 15.0573C42.0017 17.5281 45.5294 17.8308 48.4425 15.9647C48.5847 16.7354 48.6556 17.5193 48.6556 18.2829C48.6556 18.7728 48.6265 19.2623 48.571 19.7457C48.1326 19.7089 47.6915 19.6891 47.2493 19.6891C42.9251 19.6891 38.9124 21.4376 35.9994 24.5379C33.0864 21.4376 29.0736 19.6891 24.75 19.6891C24.3078 19.6891 23.8661 19.7089 23.4278 19.7457ZM58.8075 30.0019C56.8211 31.6911 54.397 31.6411 52.4354 29.8536C49.3461 27.0345 45.1933 27.0345 42.1028 29.8531C41.3585 30.5315 40.5384 30.9654 39.6908 31.1418C39.2821 29.6169 38.6218 28.1244 37.7577 26.7851C40.1615 24.0512 43.5673 22.501 47.2488 22.501C52.2783 22.5016 56.7865 25.4596 58.8075 30.0019ZM57.2079 3.66449C57.5111 2.95203 58.3351 2.62134 59.053 2.92841C59.7655 3.23383 60.0962 4.06219 59.7913 4.77465L52.9358 20.7707C52.4151 20.5647 51.8839 20.3878 51.3439 20.2395C51.4258 19.593 51.4681 18.9387 51.4681 18.2829C51.4681 17.9082 51.4538 17.5297 51.4263 17.1557L57.2079 3.66449ZM35.9994 5.62664C41.0108 5.62664 45.5404 8.60338 47.5597 13.1259C45.5723 14.8161 43.1476 14.7672 41.1855 12.9787C38.0961 10.1601 33.9439 10.1601 30.8529 12.9787C28.8814 14.7766 26.4424 14.8156 24.4501 13.1006C26.4732 8.59349 30.999 5.62664 35.9994 5.62664ZM24.7494 22.5016C29.9514 22.5016 34.3438 25.5909 36.3103 30.0003C34.3234 31.6905 31.8982 31.6416 29.9361 29.8536C26.8467 27.0345 22.6945 27.0345 19.6035 29.8531C17.632 31.6504 15.1936 31.6905 13.2012 29.9761C15.2002 25.5223 19.6622 22.5016 24.7494 22.5016ZM10.6875 39.376H61.3112C62.0863 39.376 62.7175 40.0066 62.7175 40.7822C62.7175 41.5557 62.0918 42.1857 61.3151 42.1885C61.3107 42.1885 61.3063 42.1885 61.3019 42.1885H52.8738C52.097 42.1885 51.4675 42.818 51.4675 43.5947C51.4675 44.3709 52.097 45.001 52.8738 45.001H59.4013L52.1772 68.237C51.9828 68.8061 51.4494 69.1878 50.8463 69.1878H21.1525C20.5494 69.1878 20.016 68.8061 19.8215 68.237L12.5975 45.001H41.6244C42.4011 45.001 43.0306 44.3709 43.0306 43.5947C43.0306 42.818 42.4011 42.1885 41.6244 42.1885C41.6244 42.1885 10.6881 42.1879 10.6826 42.1879C9.90972 42.1852 9.2813 41.5557 9.2813 40.7822C9.2813 40.006 9.91081 39.376 10.6875 39.376Z" fill="#0E2C52"/>
</g>
<defs>
<clipPath id="clip0">
<rect width="72" height="72" fill="white"/>
</clipPath>
</defs>
</svg>
